<?xml version="1.0" encoding="UTF-8"?>
<svg id="Capa_1" xmlns="http://www.w3.org/2000/svg" version="1.1" viewBox="0 0 16 16">
  <!-- Generator: Adobe Illustrator 29.8.2, SVG Export Plug-In . SVG Version: 2.1.1 Build 3)  -->
  <defs>
    <style>
      .st0 {
        fill: #618fbb;
      }
    </style>
  </defs>
  <path class="st0" d="M3.79,7.24c-.34,1.62.15,4.15,3.17,5.34,5.59,2.21,8.65-5.03,8.64-4.58-.04,3.42-2.33,6.85-7.04,7.34-2.34.24-5.22-.65-6.9-3.11-2.34-3.43-.54-7.26-.42-7.47C4.35-.56,10.29-.34,13.15,2.68c1.82,1.92,1.45,3.98,1.24,5.06-.44,2.3-3.02,4.01-3.13,3.85,0-.01.02-.06.04-.1.25-.45,2.55-1.88,1.41-5.58-.97-3.15-7.65-4.69-8.93,1.32Z"/>
  <circle class="st0" cx="10.14" cy="9.72" r="1.1"/>
</svg>